<?xml version="1.0" encoding="utf-8"?>
<!-- Generator: Adobe Illustrator 16.0.0, SVG Export Plug-In . SVG Version: 6.00 Build 0)  -->
<!DOCTYPE svg PUBLIC "-//W3C//DTD SVG 1.1//EN" "http://www.w3.org/Graphics/SVG/1.1/DTD/svg11.dtd">
<svg version="1.1" id="Layer_1" xmlns="http://www.w3.org/2000/svg" xmlns:xlink="http://www.w3.org/1999/xlink" x="0px" y="0px"
	 width="400px" height="400px" viewBox="0 0 400 400" enable-background="new 0 0 400 400" xml:space="preserve">
<g>
	<path fill-rule="evenodd" clip-rule="evenodd" fill="#FFB819" d="M238.771,92.563c-36.943,15.946-71.557,46.479-85.009,61.181
		c-77.655,84.933-117.088,174.725,32.807,128.06c0,0,74.749-24.105,152.638-58.313l-9.146,9.697
		C220.678,331.097,107.386,355.401,54.549,335.275c-58.164-22.153-56.827-92.934,40.875-186.691
		c-17.429,4.345-40.459,9.535-56.425,13.679l7.583-6.421c64.523-54.688,247.423-158.889,330.317-80.05l2.564,2.444l-99.055,61.65
		l5.34-10.461C314.696,75.966,281.086,74.313,238.771,92.563z"/>
	<path fill-rule="evenodd" clip-rule="evenodd" fill="#73243D" d="M374.647,78.172l-85.983,52.735
		c36.902-72.346-29.57-55.353-73.966-29.217c-25.311,13.287-54.237,40.144-63.328,49.819
		c-73.85,78.655-125.603,183.777,36.163,133.419c0,0,62.856-19.041,140.958-53.329c-220.943,186.654-429.5,108.563-224.31-87.644
		c-18.666,4.268-37.521,8.319-55.956,13.47C113.909,103.064,294.175,1.641,374.647,78.172z"/>
</g>
</svg>
