<?xml version="1.0" encoding="utf-8"?>
<!-- Generator: Adobe Illustrator 16.0.0, SVG Export Plug-In . SVG Version: 6.00 Build 0)  -->
<!DOCTYPE svg PUBLIC "-//W3C//DTD SVG 1.1//EN" "http://www.w3.org/Graphics/SVG/1.1/DTD/svg11.dtd">
<svg version="1.1" xmlns="http://www.w3.org/2000/svg" xmlns:xlink="http://www.w3.org/1999/xlink" x="0px" y="0px" width="400px"
	 height="400px" viewBox="0 0 400 400" enable-background="new 0 0 400 400" xml:space="preserve">
<g id="Layer_1" display="none">
	<g display="inline">
		<g>
			<path fill="#FFB819" d="M127.518,205.961c-3.087-53.572,37.84-99.493,91.406-102.581c53.568-3.085,99.488,37.839,102.578,91.417
				c3.08,53.547-37.84,99.479-91.406,102.563C176.527,300.449,130.604,259.521,127.518,205.961"/>
		</g>
		<g>
			<path fill="#041E41" d="M316.945,195.055c2.938,51.042-36.063,94.819-87.117,97.757c-51.046,2.94-94.821-36.067-97.758-87.111
				c-2.943-51.058,36.067-94.832,87.112-97.769C270.238,104.99,314.002,143.997,316.945,195.055"/>
		</g>
		<g>
			<path fill="#73243D" d="M236.049,115.577c32.648,4.416,59.852,27.382,69.879,58.462c-24.691-24.057-55.957-38.152-88.303-37.197
				C218.995,125.997,227.506,119.007,236.049,115.577 M205.05,117.037c4.695-1.088,9.55-1.794,14.528-2.085
				c2.086-0.121,4.162-0.16,6.223-0.139c-7.154,4.529-13.6,12.11-14.81,22.437c-4.41,0.413-8.834,1.108-13.256,2.101
				C199.468,129.561,202.079,121.776,205.05,117.037 M173.746,131.481c7.404-5.477,15.744-9.78,24.765-12.654
				c-2.647,5.205-5.015,12.812-6.67,22.025c-4.668,1.33-9.327,3.001-13.965,5.019C177.848,141.67,176.721,137.251,173.746,131.481
				 M146.215,165.798c5.218-11.777,13.028-22.213,22.749-30.518c2.906,2.805,3.289,8.386,2.813,13.461
				C163.109,153.126,154.554,158.78,146.215,165.798 M142.547,175.708c0.189-0.624,0.383-1.251,0.587-1.866
				C143.053,174.513,142.871,175.11,142.547,175.708 M151.875,245.643c-7.354-11.772-11.941-25.506-12.794-40.344
				c-0.571-9.896,0.562-19.498,3.148-28.518c9.047-8.675,18.552-15.579,28.315-20.831l-0.092,0.361
				c-3.136,11.964-11.064,21.99-15.619,33.18C147.533,207.416,147.751,228.186,151.875,245.643 M240.924,284.355
				c-3.75,0.726-7.59,1.215-11.508,1.438c-25.646,1.479-49.312-8.508-66.002-25.507c-8.972-17.737-10.709-45.611-4.657-64.217
				c3.238-9.955,12.697-23.466,15.603-33.559c1.069-3.703,2.044-6.845,2.701-9.807c4.546-2.081,9.134-3.812,13.749-5.209
				C185.564,187.29,193.265,250.025,240.924,284.355 M291.148,254.031c-10.869,13.494-25.787,23.671-43.043,28.598
				c-47.739-35.018-56.23-97.858-51.353-136.744c4.708-1.127,9.438-1.917,14.154-2.372c1.002,11.682,8.438,26.196,27.215,43.214
				C258.684,206.275,284.047,232.122,291.148,254.031 M309.918,195.458c1.1,19.086-4.148,37.075-13.908,51.913
				c-7.395-21.29-31.4-44.79-51.609-64.006c-18.104-16.414-25.53-29.773-26.771-40.271c34.138-1.008,67.372,15.212,91.454,44.335
				C309.482,190.068,309.76,192.746,309.918,195.458"/>
		</g>
		<g>
			<path fill="#FFB819" d="M363,255.834l-35.768-9.609c6.557-4.945,28.424-10.328,28.727-21.875c0.018-0.164,0.023-0.324,0.033-0.49
				c11.744-9.318,15.863-22.434,11.811-40.42l15.074-37.567c0,0-38.939,9.369-45.188,10.868l5.846-17.578l-138.92,34.172
				c-32.959-14.359-73.042-3.076-104.492,15.478l-24.234-6.108c-21.994-5.664-41.394-10.492-60.466-6.143
				c14.594,13.03,33.909,18.185,55.9,23.854l8.523,2.229c-8.445,6.649-15.656,13.601-21.119,20.271l-5.492,6.692l19.865-3.146
				c-45.833,72.403,29.566,99.377,80.358,36.034l52.674-13.813c-7.317,9.731-7.314,24.18-7.314,24.18l3.176-2.437
				c15.9-13.413,34.331-20.127,48.604-23.03l33.776,8.854c-0.054,0.135-0.078,0.318-0.092,0.566
				c-1.187,18.61,7.428,31.237,26.59,34.328c1.125,0.219,1.933,0.403,3.349,0.631c-0.339-4.051-0.359-7.012-0.177-11.069
				c14.549,10.388,30.543,8.53,43.789-2.997l1.002,2.416c14.228,3.49,21.317-20.55,20.211-25.924
				C379.012,254.07,371.418,252.951,363,255.834"/>
		</g>
		<g>
			<g>
				<g>
					<defs>
						<path id="SVGID_1_" d="M142.547,175.708c0.323-0.599,0.506-1.194,0.583-1.869C142.927,174.455,142.734,175.08,142.547,175.708
							 M142.23,176.784c-2.587,9.017-3.72,18.621-3.149,28.513c0.85,14.837,5.44,28.569,12.795,40.344
							c-4.126-17.455-4.343-38.225,2.957-56.148c4.556-11.188,12.48-21.216,15.619-33.181l0.092-0.361
							C160.783,161.201,151.278,168.107,142.23,176.784 M177.061,152.706c-0.652,2.961-1.632,6.103-2.702,9.805
							c-2.904,10.096-12.363,23.607-15.598,33.557c-6.059,18.608-4.318,46.487,4.654,64.218
							c16.69,17.001,40.354,26.983,66.004,25.509c3.916-0.223,7.756-0.711,11.509-1.439c-47.662-34.33-55.36-97.064-50.118-136.858
							C186.196,148.896,181.607,150.625,177.061,152.706 M196.754,145.884c-4.879,38.883,3.616,101.728,51.352,136.745
							c17.254-4.929,32.179-15.104,43.041-28.596c-7.099-21.911-32.461-47.762-53.022-67.308
							c-18.774-17.016-26.213-31.528-27.215-43.212C206.191,143.968,201.463,144.758,196.754,145.884 M220.637,143.052
							c-1.002,0-2.005,0.013-3.007,0.043c1.238,10.495,8.665,23.856,26.771,40.27c20.209,19.22,44.217,42.717,51.609,64.005
							c9.76-14.836,15.008-32.825,13.908-51.909c-0.154-2.714-0.436-5.391-0.838-8.032c-23.369-28.268-55.361-44.376-88.438-44.376
							C220.641,143.052,220.639,143.052,220.637,143.052 M146.215,165.799c8.339-7.019,16.897-12.672,25.562-17.056
							c0.472-5.076,0.093-10.657-2.813-13.463C159.243,143.584,151.43,154.021,146.215,165.799 M173.744,131.48
							c2.974,5.773,4.104,10.191,4.13,14.394c4.636-2.024,9.293-3.694,13.967-5.024c1.655-9.208,4.019-16.817,6.67-22.023
							C189.491,121.701,181.15,126.007,173.744,131.48 M217.625,136.844c32.346-0.958,63.609,13.14,88.303,37.196
							c-10.027-31.08-37.229-54.049-69.879-58.461C227.508,119.006,218.997,125.996,217.625,136.844 M219.578,114.952
							c-4.984,0.29-9.833,0.997-14.528,2.087c-2.975,4.736-5.584,12.523-7.315,22.308c4.424-0.988,8.846-1.684,13.256-2.097
							c1.21-10.327,7.655-17.903,14.81-22.437c-0.354-0.005-0.709-0.007-1.061-0.007
							C223.027,114.806,221.307,114.849,219.578,114.952"/>
					</defs>
					<clipPath id="SVGID_2_">
						<use xlink:href="#SVGID_1_"  overflow="visible"/>
					</clipPath>
					<g clip-path="url(#SVGID_2_)">
						<path fill="#FFB819" d="M363,255.834l-35.768-9.609c6.557-4.945,28.424-10.328,28.727-21.875
							c0.018-0.164,0.023-0.324,0.033-0.49c11.744-9.318,15.863-22.434,11.811-40.42l15.074-37.567c0,0-38.939,9.369-45.188,10.868
							l5.846-17.578l-138.92,34.172c-32.959-14.359-73.042-3.076-104.492,15.478l-24.234-6.108
							c-21.994-5.664-41.394-10.492-60.466-6.143c14.594,13.03,33.909,18.185,55.9,23.854l8.523,2.229
							c-8.445,6.649-15.656,13.601-21.119,20.271l-5.492,6.692l19.865-3.146c-45.833,72.403,29.566,99.377,80.358,36.034
							l52.674-13.813c-7.317,9.731-7.314,24.18-7.314,24.18l3.176-2.437c15.9-13.413,34.331-20.127,48.604-23.03l33.776,8.854
							c-0.054,0.135-0.078,0.318-0.092,0.566c-1.187,18.61,7.428,31.237,26.59,34.328c1.125,0.219,1.933,0.403,3.349,0.631
							c-0.339-4.051-0.359-7.012-0.177-11.069c14.549,10.388,30.543,8.53,43.789-2.997l1.002,2.416
							c14.228,3.49,21.317-20.55,20.211-25.924C379.012,254.07,371.418,252.951,363,255.834"/>
					</g>
				</g>
			</g>
		</g>
		<g>
			<g>
				<g>
					<defs>
						<path id="SVGID_3_" d="M143.131,173.838c-0.078,0.675-0.26,1.27-0.583,1.869C142.734,175.08,142.927,174.455,143.131,173.838
							 M139.081,205.297c-0.571-9.892,0.562-19.496,3.149-28.513c9.048-8.677,18.553-15.583,28.314-20.835l-0.092,0.361
							c-3.138,11.964-11.063,21.992-15.619,33.181c-7.3,17.925-7.083,38.694-2.957,56.149
							C144.521,233.866,139.931,220.134,139.081,205.297 M163.414,260.286c-8.972-17.731-10.712-45.609-4.654-64.218
							c3.235-9.95,12.694-23.461,15.598-33.557c1.07-3.703,2.05-6.844,2.702-9.805c4.546-2.081,9.135-3.81,13.749-5.211
							c-5.242,39.794,2.456,102.53,50.117,136.86c-3.752,0.729-7.592,1.217-11.508,1.438c-1.676,0.096-3.344,0.146-4.994,0.146
							C200.709,285.943,179.018,276.18,163.414,260.286 M196.754,145.884c4.708-1.126,9.438-1.917,14.154-2.371
							c1.002,11.684,8.439,26.196,27.215,43.212c20.563,19.546,45.926,45.397,53.023,67.308
							c-10.863,13.492-25.787,23.667-43.041,28.596C200.37,247.611,191.875,184.767,196.754,145.884 M244.4,183.364
							c-18.105-16.412-25.532-29.773-26.771-40.27c34.133-1.007,67.37,15.209,91.45,44.333c0.401,2.641,0.685,5.317,0.838,8.032
							c1.101,19.084-4.147,37.073-13.908,51.909C288.615,226.081,264.609,202.584,244.4,183.364 M168.964,135.279
							c2.906,2.807,3.286,8.388,2.813,13.463c-8.666,4.384-17.223,10.037-25.562,17.056
							C151.43,154.021,159.243,143.584,168.964,135.279 M173.744,131.48c7.406-5.474,15.747-9.779,24.768-12.654
							c-2.651,5.206-5.016,12.815-6.67,22.023c-4.674,1.331-9.331,3-13.967,5.024C177.848,141.672,176.718,137.253,173.744,131.48
							 M236.049,115.579c32.648,4.413,59.852,27.381,69.879,58.461c-24.693-24.057-55.957-38.154-88.303-37.196
							C218.997,125.996,227.508,119.006,236.049,115.579 M205.05,117.039c4.695-1.09,9.544-1.797,14.528-2.087
							c2.086-0.122,4.164-0.162,6.223-0.139c-7.154,4.534-13.6,12.11-14.81,22.437c-4.41,0.413-8.832,1.109-13.256,2.097
							C199.466,129.562,202.075,121.774,205.05,117.039 M219.184,107.933c-51.049,2.935-90.056,46.708-87.116,97.77
							c2.939,51.042,46.714,90.052,97.764,87.109c51.053-2.938,90.057-46.713,87.113-97.757
							c-2.84-49.246-43.652-87.277-92.354-87.28C222.799,107.775,220.994,107.826,219.184,107.933"/>
					</defs>
					<clipPath id="SVGID_4_">
						<use xlink:href="#SVGID_3_"  overflow="visible"/>
					</clipPath>
					<g clip-path="url(#SVGID_4_)">
						<path fill="#FFB819" d="M363,255.834l-35.768-9.609c6.557-4.945,28.424-10.328,28.727-21.875
							c0.018-0.164,0.023-0.324,0.033-0.49c11.744-9.318,15.863-22.434,11.811-40.42l15.074-37.567c0,0-38.939,9.369-45.188,10.868
							l5.846-17.578l-138.92,34.172c-32.959-14.359-73.042-3.076-104.492,15.478l-24.234-6.108
							c-21.994-5.664-41.394-10.492-60.466-6.143c14.594,13.03,33.909,18.185,55.9,23.854l8.523,2.229
							c-8.445,6.649-15.656,13.601-21.119,20.271l-5.492,6.692l19.865-3.146c-45.833,72.403,29.566,99.377,80.358,36.034
							l52.674-13.813c-7.317,9.731-7.314,24.18-7.314,24.18l3.176-2.437c15.9-13.413,34.331-20.127,48.604-23.03l33.776,8.854
							c-0.054,0.135-0.078,0.318-0.092,0.566c-1.187,18.61,7.428,31.237,26.59,34.328c1.125,0.219,1.933,0.403,3.349,0.631
							c-0.339-4.051-0.359-7.012-0.177-11.069c14.549,10.388,30.543,8.53,43.789-2.997l1.002,2.416
							c14.228,3.49,21.317-20.55,20.211-25.924C379.012,254.07,371.418,252.951,363,255.834"/>
					</g>
				</g>
			</g>
		</g>
		<g>
			<g>
				<path fill="#041E41" d="M376.719,257.162c-7.875-1.407-13.088,1.863-13.25,1.857c-0.119-0.012-27.375-7.34-37.408-10.047
					l-5.273-1.423c3.395-4.603,9.943-6.577,16.512-9.493c2.844-1.267,6.75-2.75,9.67-4.799c5.268-3.688,6.021-6.117,6.059-6.117
					c-9.611,0.313-18.67-2.281-20.27-2.609c-4.219-0.885-8.439-1.053-12.51-0.604c-0.139,0.015-0.273,0.024-0.41,0.05
					c-10.924,1.301-20.732,7.086-26.566,15.606c0,0-0.711,0.935-0.951,1.203c-0.771,0.847-1.854,2.146-1.854,2.146l3.201,0.827
					c2.211,0.382,0.969,5.188-1.963,4.429l-14.057-3.677c-5.488,0.462-11.213,0.912-15.094,1.192
					c-1.998,0.145-4.203,0.385-6.572,0.742l31.164,8.193c-2.23,20.328,8.686,32.838,24.082,34.086
					c-0.031-2.07-0.086-6.434,0.025-14.214c0,0,22.16,23.777,47.58-1.797c0.182-0.169,2.141,4.825,2.141,4.825
					C372.168,278.842,377.098,257.212,376.719,257.162"/>
			</g>
		</g>
		<g>
			<g>
				<g>
					<defs>
						<path id="SVGID_5_" d="M309.389,228.512c-5.861,3.313-13.889,11.721-13.889,11.721s-0.51,1.276,0.641,3.313
							c0.615,1.102,1.193,1.826,1.594,2.408c0.031-0.837,0.346-1.813,1.006-2.624c5.473-7.045,15.061-14.578,27.658-14.028
							c-12.512,2.184-20.945,10.215-26.281,17.533c-0.789,0.882-1.422,1.012-1.84,0.723c-0.119,1.491-1.082,3.396-2.396,3.637
							c-1.399,0.254-6.879,4.715-6.879,4.715v2.674l0.513,8.41c0,0,1.019,5.99,2.928,8.406c1.912,2.425,7.521,10.453,16.312,11.342
							c0,0,0.638-21.403,3.313-27.771c2.677-6.373,6.238-13.766,11.978-16.824c5.729-3.051,14.522-6.11,19.111-8.533
							c4.592-2.422,6.627-5.098,6.627-5.098s-9.431-0.386-17.072-1.656c-3.264-0.547-6.924-0.926-10.504-0.926
							C317.402,225.928,312.746,226.613,309.389,228.512"/>
					</defs>
					<clipPath id="SVGID_6_">
						<use xlink:href="#SVGID_5_"  overflow="visible"/>
					</clipPath>
					<g clip-path="url(#SVGID_6_)">
						<path fill="#FFB819" d="M330.848,228.389c-12.967-2.291-24.82,1.789-33.367,13.93c1.652,1.048,2.721,3.533,2.539,6.363
							c-0.225,3.494-2.266,6.228-4.631,6.309c0.01,0.072,0.023,0.132,0.035,0.211c0,0.005-0.004,0-0.004,0.005
							c0.271,5.272,2.105,10.342,4.711,13.028c1.002-9.086,5.852-21.473,19.52-29.116c-13.607,11.858-16.279,28.905-15.313,40.557
							c-6.354-1.276-11.662-11.983-13.533-17.629c1.438,9.652,7.449,21.162,16.674,21.804c-1.891-18.537,5.307-37.748,17.447-44.156
							c4.984-2.66,12.01-4.383,19.723-9.352C336.387,229.667,333.781,228.9,330.848,228.389"/>
					</g>
				</g>
			</g>
		</g>
		<g>
			<path fill="#041E41" d="M376.52,150.745c-0.09,0.099-30.785,7.494-43.875,10.623l5.848-17.569l-134.165,33.297
				c-30.81-14.01-68.866-4.291-99.495,12.899l59.499,14.989c-0.255,0.787-0.546,1.562-0.876,2.199l-90.349-22.722
				c-18.354-4.736-34.918-9.23-50.729-6.11c12.336,10.372,29.018,14.398,47.371,19.134l67.439,17.729
				c-1.227,0.521-2.38,1.061-3.362,1.582L83.91,203.713c-9.074,6.91-16.817,14.236-22.613,21.309l17.828-2.328
				c-50.979,81.654,31.473,92.025,70.516,37.09l64.757-16.244c-5.932,5.82-9.442,14.243-11.27,21.645
				c19.18-16.568,44.188-21.707,59.188-22.789c9.104-0.662,19.164-1.66,26.961-2.529l2.201-2.782
				c7.106-9.739,17.435-14.489,28.358-15.558c8.498-0.828,11.488,0.416,15.067,1.063c1.673,0.436,7.603,2.014,13.673,2.283
				c15.696-9.161,20.34-22.422,15.769-41.658L376.52,150.745z M149.933,211.168l-67.048-17.504
				C63.755,188.37,58.78,184.113,57.531,183l38.958,10.057l63.264,16.266C156.881,209.99,152.564,210.707,149.933,211.168"/>
		</g>
		<g>
			<g>
				<g>
					<defs>
						<path id="SVGID_7_" d="M77.636,216.637c5.293-4.275,10.646-8.166,16.005-11.722l25.857,7.101
							c-0.42,0.418-0.833,0.832-1.224,1.248c-57.566,60.065-19.7,70.12,22.211,47.019c0.866-0.435-5.918,5.875-5.918,5.875
							c-46.578,45.742-97.383,11.274-35.346-54.438c-6.643,1.874-19.952,4.952-21.449,4.952
							C77.683,216.67,77.636,216.66,77.636,216.637 M203.775,187.806c0.007,0.002,0.011,0.002,0.011,0.007
							C203.782,187.811,203.779,187.809,203.775,187.806 M113.77,193.193c38.637-19.453,74.606-20.447,90.005-5.387
							c-0.586-0.199-30.458,17.454-33.525,19.768c14.796-28.928-11.855-22.338-34.053-8.445L113.77,193.193z M287.037,224.832
							c33.504-5.004,69.389-13.352,56.672-32.456c-2.4-2.272-3.695-2.872-5.607-5.446c-8.285-11.125,5.902-23.854,21.811-22.803
							c1.098,0.071,3.977,0.512,3.881,0.614l-3.908,9.958c-3.199-5.112-13.582-6.318-14.957-0.13
							c-1.027,4.631,6.313,6.315,10.596,14.399c5.828,11.024-0.27,22.15-10.836,27.578c-4.102,2.113-8.332,3.901-12.666,5.437
							c-3.518,0.925-7.211,1.939-11.797,3.217c-4.201,1.167-5.479,1.908-21.531,4.462c-27.281,4.108-56.084,5.416-80.135,16.703
							C229.012,235.643,256.596,229.518,287.037,224.832 M204.613,173.335c-32.958-14.364-73.042-3.079-104.491,15.474
							l-24.233-6.107c-21.995-5.664-41.394-10.491-60.464-6.142c14.592,13.029,33.904,18.184,55.898,23.855l8.525,2.228
							c-8.449,6.649-15.659,13.603-21.121,20.271l-5.49,6.691l19.862-3.145c-45.833,72.403,29.568,99.379,80.361,36.03
							l52.672-13.808c-7.317,9.729-7.312,24.176-7.312,24.176l3.174-2.436c15.9-13.412,34.333-20.124,48.604-23.029l33.778,8.851
							c-0.056,0.137-0.082,0.319-0.092,0.569c-1.187,18.611,7.426,31.236,26.588,34.328c1.123,0.222,1.935,0.404,3.349,0.631
							c-0.337-4.051-0.359-7.016-0.175-11.072c14.55,10.393,30.541,8.535,43.785-2.995l1.004,2.414
							c14.226,3.493,21.317-20.548,20.209-25.924c-0.028-0.126-7.623-1.247-16.043,1.636l-35.769-9.611
							c6.558-4.942,28.422-10.326,28.728-21.873c0.019-0.166,0.021-0.322,0.035-0.49c11.743-9.318,15.86-22.436,11.807-40.42
							l15.078-37.568c0,0-38.94,9.374-45.188,10.87l5.849-17.578L204.613,173.335z"/>
					</defs>
					<clipPath id="SVGID_8_">
						<use xlink:href="#SVGID_7_"  overflow="visible"/>
					</clipPath>
					<g clip-path="url(#SVGID_8_)">
						<path fill="#041E41" d="M376.52,150.745c-0.09,0.099-30.785,7.494-43.875,10.623l5.848-17.569l-134.165,33.297
							c-30.81-14.01-68.866-4.291-99.495,12.899l59.499,14.989c-0.255,0.787-0.546,1.562-0.876,2.199l-90.349-22.722
							c-18.354-4.736-34.918-9.23-50.729-6.11c12.336,10.372,29.018,14.398,47.371,19.134l67.439,17.729
							c-1.227,0.521-2.38,1.061-3.362,1.582L83.91,203.713c-9.074,6.91-16.817,14.236-22.613,21.309l17.828-2.328
							c-50.979,81.654,31.473,92.025,70.516,37.09l64.757-16.244c-5.932,5.82-9.442,14.243-11.27,21.645
							c19.18-16.568,44.188-21.707,59.188-22.789c9.104-0.662,19.164-1.66,26.961-2.529l2.201-2.782
							c7.106-9.739,17.435-14.489,28.358-15.558c8.498-0.828,11.488,0.416,15.067,1.063c1.673,0.436,7.603,2.014,13.673,2.283
							c15.696-9.161,20.34-22.422,15.769-41.658L376.52,150.745z M149.933,211.168l-67.048-17.504
							C63.755,188.37,58.78,184.113,57.531,183l38.958,10.057l63.264,16.266C156.881,209.99,152.564,210.707,149.933,211.168"/>
					</g>
				</g>
			</g>
		</g>
		<g>
			<path fill="#FFB819" d="M364.941,261.698c2.725-1.3,5.75-1.888,8.729-2.275c-4.148,1.562-6.225,3.956-6.465,3.863
				c-0.936,2.297-0.914,4.739-6.174,7.36C362.699,268.048,365.129,265.043,364.941,261.698"/>
		</g>
		<g>
			<path fill="#FFB819" d="M312.545,266.113c5.664,12.455,22.184,15.395,32.154,13.277c-4.449,3.868-26.152,3.049-32.668-9.677
				L312.545,266.113z"/>
		</g>
		<g>
			<path fill="#FFB819" d="M318.637,250.257l42.844,11.085c1.396,0.356,0.809,4.275-1.014,3.811L316.4,253.945
				C316.654,252.891,318.256,250.514,318.637,250.257"/>
		</g>
		<g>
			<path fill="#FFB819" d="M355.18,269.212c-15.475,15.261-39.76,4.767-39.613-7.606C315.877,261.598,331.381,273,355.18,269.212"/>
		</g>
		<g>
			<g>
				<g>
					<defs>
						<path id="SVGID_9_" d="M297.48,242.316c1.65,1.047,2.717,3.533,2.537,6.363c-0.227,3.492-2.268,6.227-4.629,6.309
							c0.008,0.074,0.023,0.132,0.033,0.211c0,0.008-0.002,0-0.002,0.008c0.271,5.27,2.104,10.339,4.709,13.021
							c1.004-9.084,5.854-21.469,19.52-29.117c-13.607,11.857-16.281,28.916-15.311,40.56c-6.359-1.274-11.668-11.983-13.533-17.627
							c1.438,9.649,7.445,21.164,16.668,21.802c-1.893-18.537,5.309-37.746,17.449-44.156c4.986-2.655,12.012-4.381,19.723-9.35
							c-8.26-0.673-10.865-1.438-13.797-1.951c-2.275-0.402-4.521-0.605-6.717-0.605C313.82,227.779,304.527,232.311,297.48,242.316
							"/>
					</defs>
					<clipPath id="SVGID_10_">
						<use xlink:href="#SVGID_9_"  overflow="visible"/>
					</clipPath>
					<g clip-path="url(#SVGID_10_)">
						<path fill="#FFFFFF" d="M298.738,243.329c-1.896,2.317-0.943,6.078,1.377,3.505c5.336-7.318,13.773-15.352,26.287-17.533
							C313.797,228.751,304.209,236.284,298.738,243.329"/>
					</g>
				</g>
			</g>
		</g>
		<g>
			<path fill="#FFFFFF" d="M250.789,172.633l2.83-0.632l0.258,7.24l5.67-8.622l3.848-1.035l-11.148,14.957L250.789,172.633z
				 M324.379,155.396l-0.428-0.063l-2.277,0.525l-4.162,10.611l1.797-0.438c0.084-0.02,0.354-0.115,0.918-0.365l0.641-0.335
				l3.938-9.813C324.664,155.461,324.551,155.427,324.379,155.396 M319.096,167.448l-5.729,1.407l5.328-13.584l5.738-1.428
				c0.965-0.232,1.883-0.252,2.754-0.13c0.869,0.109,1.406,0.329,1.236,0.76l-3.924,10.004c-0.174,0.447-1.014,1.024-2.178,1.641
				C321.15,166.747,320.061,167.214,319.096,167.448 M214.656,193.613c-0.875,0.215-1.809,0.303-2.786,0.303
				c-1.242-0.007-1.947-0.24-1.722-0.821l4.033-10.278c0.168-0.426,1.021-0.988,2.156-1.591c1.176-0.607,2.26-1.072,3.221-1.303
				l5.682-1.394l-0.949,2.423l-3.48,0.853l0.416-0.936l-0.965,0.216c-0.945,0.233-1.621,0.446-2.08,0.642
				c-0.389,0.166-0.502,0.268-0.543,0.37l-3.889,10.013c0,0.006-0.016,0.109,0.619,0.087c0.482-0.02,0.775-0.059,0.923-0.094
				c0.467-0.111,0.894-0.285,1.342-0.549c0.474-0.294,0.696-0.514,0.771-0.708l-0.214-0.465l3.806-0.931l-0.438,1.116
				c-0.209,0.542-1.203,1.176-2.608,1.817C216.734,192.946,215.629,193.373,214.656,193.613 M229.299,177.791l3.506-0.854
				l-4.738,12.071l5.766-1.417l-0.586,1.495l-9.262,2.276L229.299,177.791z M241.293,174.749l7.979-1.953l-0.566,1.457l-4.479,1.098
				l-1.604,4.086l4.471-1.093l-0.578,1.49l-4.48,1.097l-1.979,5.036l4.482-1.093l-0.594,1.487l-7.979,1.955L241.293,174.749z
				 M266.279,168.577l7.979-1.959l-0.57,1.466l-4.475,1.093l-1.605,4.091l4.479-1.1l-0.588,1.495l-4.474,1.098l-1.981,5.033
				l4.479-1.104l-0.588,1.501l-7.983,1.959L266.279,168.577z M277.561,165.664l3.506-0.86l-4.73,12.066l5.756-1.407l-0.586,1.49
				l-9.266,2.273L277.561,165.664z M293.277,169.23l-3.305,0.808l-2.008,5.12l-3.604,0.88l4.707-11.883
				c0.229-0.58,1.176-1.229,2.59-1.9c1.17-0.562,2.305-0.988,3.4-1.255c1.041-0.257,2.051-0.339,3.023-0.283
				c1.025,0.044,1.6,0.285,1.393,0.804l-4.695,11.967l-3.508,0.859L293.277,169.23z M295.85,162.5
				c-0.066-0.025-0.211-0.045-0.471-0.052c-0.496-0.015-0.82,0.039-0.934,0.071c-0.191,0.045-0.596,0.186-1.236,0.479
				c-0.293,0.137-0.463,0.232-0.559,0.292l-2.135,5.263l3.305-0.81l2.092-5.208L295.85,162.5z M307.273,166.597l-1.4-5.315
				l-3.52,10.497l-3.508,0.858l5.32-13.569l3.561-0.87l1.141,4.702l2.17-5.509l3.502-0.857l-5.328,13.565l-3.553,0.873
				L307.273,166.597z"/>
		</g>
		<g>
			<path fill="#FFFFFF" d="M177.422,210.713l5.494,3.346c-2.841,8.094-15.164,25.241-22.225,30.426l12.346-32.805l-9.467,2.51
				l-15.5,39.48l19.861-5.098c0.439-0.125,17.857-13.947,27.826-42.523L177.422,210.713z"/>
		</g>
		<g>
			<path fill="#FFFFFF" d="M119.712,245.383c-0.101,0.014-7.246,14.717-8.696,17.735l9.828-2.571l6.644-13.775l7.943-2.332
				l-5.479,13.814l10.451-2.682l16.097-39.879C151.099,217.531,132,217.859,119.712,245.383 M138.069,238.966l-7.759,2.235
				c0,0,6.485-12.707,13.188-14.711L138.069,238.966z"/>
		</g>
		<g>
			<path fill="#FFFFFF" d="M318.578,195.793c-0.539-0.779-0.969-2.402-0.965-2.438c0.328-0.156,0.664-0.324,1.004-0.515
				c6.391-3.64,13.418-14.512,13.129-21.921c-8.98,2.406-24.045,6.314-24.121,6.418l-14.391,39.535l9.352-2.403l6.18-17.001
				c0.703,1.589,4.832,11.375,12.854,12.19c9.278,0.938,14.703-8.234,14.703-8.234C333.885,203.518,322.814,204.311,318.578,195.793
				 M311.008,192.024l4.557-12.64l7.104-1.901C321.65,180.198,319.75,187.514,311.008,192.024"/>
		</g>
		<g>
			<path fill="#FFFFFF" d="M190.714,227.389c-0.097,0.008-7.137,14.457-8.596,17.473l9.935-2.545l6.439-13.541l7.941-2.338
				l-5.431,13.645l10.369-2.623l16.118-39.678C222.744,199.154,203.007,199.863,190.714,227.389 M209.073,220.967l-7.761,2.236
				c0,0,6.489-12.699,13.188-14.703L209.073,220.967z"/>
		</g>
		<g>
			<polygon fill="#FFFFFF" points="263.334,188.274 247.842,228.012 257.693,225.525 273.133,185.799 			"/>
		</g>
		<g>
			<path fill="#FFFFFF" d="M273.877,216.729l4.945-11.582l13.551-7.327l-10.879,0.8l4.746-12.642
				c5.938-1.866,8.932-0.051,11.463,3.687l4.496-11.123l-23.859,6.079l-15.328,39.671l24.299-6.319l5.225-12.293
				C287.129,211.605,281.111,215.503,273.877,216.729"/>
		</g>
		<g>
			<path fill="#FFFFFF" d="M230.201,227.887l12.938-34.402l-10.34,2.616l-15.273,39.776l26.215-6.754l5.783-14.102
				C242.557,223.247,238.895,226.451,230.201,227.887"/>
		</g>
		<g>
			<g>
				<g>
					<defs>
						<path id="SVGID_11_" d="M204.325,177.096c-30.81-14.01-68.864-4.291-99.493,12.901l59.498,14.987
							c-0.254,0.785-0.549,1.562-0.875,2.203l-26.27,8.026c-1.227,0.521-2.381,1.062-3.364,1.584L83.91,203.711
							c-9.074,6.908-16.819,14.236-22.614,21.311l17.83-2.332c-50.982,81.658,31.473,92.029,70.514,37.092l64.76-16.242
							c-5.935,5.82-9.445,14.243-11.271,21.645c19.178-16.566,44.188-21.707,59.188-22.791c9.104-0.66,19.16-1.658,26.959-2.527
							l2.201-2.784c7.107-9.735,17.436-14.487,28.357-15.556c8.502-0.834,11.49,0.416,15.072,1.063
							c1.67,0.436,7.6,2.014,13.666,2.283c15.701-9.159,20.346-22.424,15.771-41.658l12.179-32.466
							c-0.095,0.099-30.787,7.497-43.877,10.623l5.847-17.569L204.325,177.096z"/>
					</defs>
					<clipPath id="SVGID_12_">
						<use xlink:href="#SVGID_11_"  overflow="visible"/>
					</clipPath>
					<g clip-path="url(#SVGID_12_)">
						<path fill="#FFFFFF" d="M363.795,164.74l-3.912,9.959c-3.201-5.115-13.582-6.318-14.957-0.132
							c-1.027,4.635,6.313,6.318,10.594,14.399c5.83,11.027-0.264,22.155-10.836,27.584c-4.1,2.109-8.332,3.896-12.666,5.433
							c-3.518,0.925-7.211,1.938-11.797,3.217c-4.201,1.164-5.479,1.912-21.531,4.464c-27.279,4.11-56.088,5.414-80.133,16.701
							c10.455-10.726,38.041-16.845,68.48-21.533c33.504-5.004,69.389-13.353,56.672-32.454c-2.4-2.272-3.695-2.872-5.604-5.443
							c-8.289-11.129,5.896-23.854,21.805-22.808C361.008,164.196,363.887,164.639,363.795,164.74"/>
					</g>
				</g>
			</g>
			<g>
				<g>
					<defs>
						<path id="SVGID_13_" d="M204.325,177.096c-30.81-14.01-68.864-4.291-99.493,12.901l59.498,14.987
							c-0.254,0.785-0.549,1.562-0.875,2.203l-26.27,8.026c-1.227,0.521-2.381,1.062-3.364,1.584L83.91,203.711
							c-9.074,6.908-16.819,14.236-22.614,21.311l17.83-2.332c-50.982,81.658,31.473,92.029,70.514,37.092l64.76-16.242
							c-5.935,5.82-9.445,14.243-11.271,21.645c19.178-16.566,44.188-21.707,59.188-22.791c9.104-0.66,19.16-1.658,26.959-2.527
							l2.201-2.784c7.107-9.735,17.436-14.487,28.357-15.556c8.502-0.834,11.49,0.416,15.072,1.063
							c1.67,0.436,7.6,2.014,13.666,2.283c15.701-9.159,20.346-22.424,15.771-41.658l12.179-32.466
							c-0.095,0.099-30.787,7.497-43.877,10.623l5.847-17.569L204.325,177.096z"/>
					</defs>
					<clipPath id="SVGID_14_">
						<use xlink:href="#SVGID_13_"  overflow="visible"/>
					</clipPath>
					<g clip-path="url(#SVGID_14_)">
						<path fill="#FFFFFF" d="M203.786,187.813c-0.111-0.495-30.44,17.43-33.538,19.761c19.357-37.853-32.254-14.897-51.976,5.688
							c-57.561,60.066-19.699,70.121,22.213,47.018c0.868-0.432-5.917,5.877-5.917,5.877
							c-46.577,45.741-97.386,11.277-35.348-54.436c-7.042,1.982-21.57,5.323-21.588,4.916
							C128.164,175.851,183.621,168.079,203.786,187.813"/>
					</g>
				</g>
			</g>
		</g>
	</g>
</g>
<g id="Layer_2">
	<g>
		<path fill="#0068B3" d="M118.36,320.262l20.153-10.272c1.061-0.535,1.786-0.805,2.119-0.849l0.174-0.017
			c0.304,0,0.751,0.119,1.303,0.403l0.145,0.051l0.564-0.607l0.14-0.178l-7.663-6.848l-0.603,0.66l-0.11,0.151l0.11,0.158
			c0.355,0.45,0.507,0.839,0.507,1.103l-0.174,0.506c-0.214,0.225-0.665,0.538-1.37,0.892l-13.612,7.078l5.542-14.633
			c0.219-0.617,0.408-0.989,0.525-1.111l0.678-0.313c0.283,0,0.626,0.093,1.021,0.305l0.13,0.078l0.56-0.63l0.173-0.174
			l-8.107-7.222l-0.588,0.656l-0.128,0.161l0.106,0.131c0.324,0.424,0.459,0.771,0.459,1.034l-0.222,0.548
			c-0.07,0.105-0.456,0.361-1.075,0.651l-14.2,7.011l5.657-14.527c0.233-0.574,0.459-0.973,0.642-1.166l0.612-0.28l0.914,0.28
			l0.167,0.079l0.553-0.639l0.139-0.155l-7.75-6.929l-0.603,0.673l-0.109,0.135l0.102,0.15c0.375,0.476,0.537,0.943,0.537,1.366
			c0,0.444-0.186,1.22-0.56,2.257l-7.961,21.197c-0.373,1.006-0.689,1.632-0.758,1.699l-0.79,0.392l-0.914-0.317l-0.169-0.075
			l-0.557,0.628l-0.143,0.159l7.169,6.428l0.616-0.655l0.118-0.129l-0.1-0.139c-0.352-0.526-0.493-0.906-0.493-1.231l0.213-0.548
			c0.086-0.087,0.584-0.387,1.432-0.752l15.365-7.7l-5.881,15.739c-0.326,1.016-0.596,1.639-0.735,1.763l-0.734,0.37
			c-0.285,0-0.617-0.105-0.999-0.354l-0.169-0.107l-0.561,0.645l-0.139,0.186l7.281,6.503l0.585-0.668l0.141-0.162l-0.119-0.12
			c-0.367-0.452-0.511-0.812-0.511-1.095l0.239-0.575C116.809,321.126,117.395,320.737,118.36,320.262 M146.379,308.971l-0.074,0.14
			l0.108,0.133c0.387,0.374,0.557,0.723,0.557,1.062l-0.114,0.459c-0.182,0.31-0.538,0.739-1.124,1.188l-19.11,15.113
			c-0.698,0.564-1.206,0.899-1.546,0.995l-0.522,0.079l-0.742-0.108l-0.188-0.049l-0.391,0.753l-0.106,0.203l8.902,4.367
			l0.409-0.818l0.074-0.159l-0.14-0.116c-0.515-0.411-0.728-0.801-0.728-1.118l0.084-0.365c0.129-0.226,0.403-0.551,0.885-0.934
			l3.486-2.759l11.301,5.666v4.349c0,0.63-0.069,1.067-0.148,1.265c-0.208,0.369-0.464,0.527-0.921,0.548l-0.669-0.102l-0.148-0.061
			l-0.39,0.78l-0.079,0.176l9.841,4.854l0.389-0.81l0.07-0.187l-0.13-0.103c-0.461-0.338-0.739-0.71-0.882-1.11
			c-0.143-0.421-0.244-1.15-0.244-2.179l-0.1-24.604c0-0.563,0.078-1.017,0.226-1.315c0.169-0.317,0.435-0.473,0.968-0.494
			l0.456,0.039l0.557-0.718l0.091-0.196l-9.536-4.655L146.379,308.971z M147.535,327.929l-7.775-3.837l8.075-6.542L147.535,327.929z
			 M189.822,323.997c-0.803-0.86-1.829-1.508-3.063-2.058c-1.233-0.504-2.902-0.966-5.035-1.43l-17.72-3.698l-0.218,0.871
			c0.583,0.479,0.856,0.706,0.948,0.907l0.1,0.465l-0.026,0.401l-4.948,23.72l-0.404,0.752c-0.192,0.119-0.516,0.238-1.013,0.248
			l-0.352,0.839l-0.039,0.203l9.152,1.941l0.197-0.889c-0.548-0.462-0.809-0.683-0.935-0.869l-0.112-0.509l0.039-0.343l1.911-9.098
			l7.247,1.524l3.771,9.294c0.399,0.956,0.607,1.584,0.595,1.811v0.075c-0.048,0.16-0.235,0.295-0.822,0.303h-0.169l-0.37,0.843
			l-0.03,0.222l10.543,2.182l0.191-0.861l0.043-0.2l-0.213-0.05c-0.586-0.17-1.03-0.445-1.352-0.903
			c-0.355-0.461-0.877-1.486-1.542-3.007l-3.678-8.559h0.546c4.748,0.026,7.71-2.219,8.61-6.617
			c0.135-0.706,0.218-1.425,0.218-2.103c0-0.646-0.066-1.285-0.182-1.912C191.408,326.14,190.787,324.962,189.822,323.997
			 M185.177,330.101c-0.325,1.407-0.989,2.226-2.066,2.546c-0.4,0.114-0.83,0.205-1.265,0.205l-0.335-0.009
			c-0.572-0.057-1.572-0.212-2.954-0.517l-9.214-1.916l1.447-6.899l9.206,1.939c1.446,0.259,2.416,0.515,2.928,0.694
			c0.491,0.194,0.942,0.472,1.381,0.85c0.643,0.513,0.956,1.21,0.956,2.137L185.177,330.101z M223.151,346.816l-5.661-7.395
			c4.819-1.015,7.313-3.787,7.299-8.161l-0.01-0.469c-0.061-1.404-0.368-2.717-0.925-3.924c-0.629-1.249-1.524-2.253-2.685-2.938
			c-1.021-0.623-2.168-1.035-3.494-1.241c-0.937-0.134-2.081-0.199-3.422-0.199c-0.561,0-1.173,0.005-1.799,0.04l-17.865,0.726
			l-0.19,0.877c0.633,0.313,0.96,0.483,1.13,0.67c0.144,0.139,0.252,0.416,0.26,0.818l0.968,24.185v0.098l-0.229,0.744
			c-0.121,0.156-0.439,0.339-0.912,0.513l-0.144,0.891l9.184-0.145l0.16-0.92c-0.651-0.279-0.939-0.448-1.1-0.613
			c-0.169-0.169-0.286-0.431-0.304-0.825l-0.352-9.239l7.397-0.297l5.938,8.081c0.674,0.9,1.007,1.51,1.007,1.642v0.026
			c0,0.213-0.187,0.421-0.872,0.574l-0.135,0.877l10.544-0.181l0.205-0.894c-0.853-0.234-1.348-0.422-1.78-0.786
			C224.955,349.007,224.182,348.17,223.151,346.816 M194.797,323.467v-0.009l0.622-0.016L194.797,323.467z M195.705,351.819
			L195.705,351.819L195.705,351.819L195.705,351.819z M216.628,350.984l0.002-0.018l0.007,0.018H216.628z M216.771,333.969
			c-0.46,0.27-0.982,0.455-1.525,0.55c-0.557,0.105-1.55,0.181-2.975,0.251l-9.402,0.376l-0.299-7.283l0.348-0.016l9.088-0.122
			c0.713-0.033,1.313-0.064,1.847-0.064c0.49,0,0.868,0.031,1.133,0.064c0.523,0.045,1.053,0.206,1.553,0.445
			c0.969,0.478,1.516,1.393,1.585,2.837v0.217C218.122,332.556,217.66,333.426,216.771,333.969 M239.968,345.971
			c-0.203-0.134-0.347-0.391-0.438-0.769l-5.222-23.661l-0.05-0.396l0.104-0.453c0.121-0.192,0.388-0.442,0.805-0.655l-0.006-0.907
			l-0.055-0.22l-9.154,2.012l0.179,0.89c0.726,0.202,1.05,0.307,1.242,0.448l0.403,0.723l5.229,23.671l0.031,0.404l-0.092,0.457
			c-0.113,0.195-0.373,0.448-0.82,0.668l0.021,0.907l0.064,0.213l9.162-2.023l-0.214-0.869
			C240.489,346.24,240.155,346.132,239.968,345.971 M264.015,311.777c-1.521-0.548-3.154-0.821-4.823-0.821
			c-2.468,0-5.077,0.593-7.829,1.77c-6.138,2.702-9.664,6.759-10.456,12.116c-0.121,0.755-0.187,1.514-0.187,2.249
			c0,2.046,0.426,4.019,1.247,5.97c0.773,1.828,1.868,3.41,3.232,4.801c1.565,1.547,3.354,2.688,5.397,3.401
			c1.537,0.548,3.153,0.838,4.852,0.838c2.429,0,5.018-0.583,7.754-1.754c6.112-2.596,9.629-6.665,10.478-12.142
			c0.127-0.831,0.205-1.63,0.205-2.404c0-1.963-0.417-3.843-1.173-5.655C270.931,315.994,268.02,313.189,264.015,311.777
			 M267.22,326.634c0,1.441-0.269,2.777-0.877,4.014c-0.982,2.16-2.715,3.75-5.213,4.805c-1.466,0.617-2.857,0.94-4.219,0.94
			c-0.981,0-1.934-0.149-2.896-0.475c-2.65-0.908-4.584-2.732-5.773-5.509c-0.604-1.411-0.878-2.771-0.878-4.088
			c0-1.334,0.274-2.646,0.888-3.914c1.02-2.157,2.745-3.744,5.213-4.795c1.455-0.621,2.887-0.923,4.282-0.923
			c0.948,0,1.903,0.149,2.851,0.448c2.636,0.859,4.553,2.725,5.813,5.639c0.543,1.203,0.791,2.441,0.812,3.75L267.22,326.634
			L267.22,326.634z M308.157,309.707l-0.205,0.1c-0.442,0.329-0.92,0.458-1.433,0.472h-0.153c-0.539-0.047-1.649-0.313-3.249-0.789
			l-8.888-2.778c1.876-2.055,2.831-4.126,2.831-6.194c0-1.715-0.651-3.418-1.915-5.034c-0.848-1.125-1.877-2.01-3.037-2.666
			c-1.067-0.589-2.192-0.88-3.37-0.861l-0.521,0.019c-1.155,0.068-2.342,0.411-3.527,1.011c-1.2,0.585-2.634,1.559-4.384,2.91
			l-14.328,11.059l0.548,0.702l0.083,0.119l0.161-0.07l0.867-0.203l0.17,0.015l0.729,0.537l14.758,19.168l0.33,0.76v0.049
			c-0.03,0.199-0.16,0.523-0.468,0.932l-0.088,0.142l0.512,0.672l0.14,0.174l7.416-5.726l-0.552-0.713l-0.1-0.151l-0.159,0.082
			l-0.865,0.214l-0.149-0.014l-0.716-0.513l-5.647-7.329l5.856-4.525l9.538,3.18c1.082,0.313,1.74,0.664,1.786,0.752l0.078,0.199
			l-0.463,0.746l-0.122,0.116l0.535,0.716l0.12,0.179l8.55-6.609l-0.553-0.693L308.157,309.707z M290.454,302.688
			c-0.222,0.483-0.521,0.936-0.93,1.331c-0.391,0.429-1.151,1.092-2.269,1.933l-7.472,5.738l-4.302-5.585l7.465-5.73
			c1.125-0.882,1.963-1.459,2.445-1.751c0.457-0.273,0.974-0.436,1.496-0.514l0.446-0.043c0.934,0,1.751,0.453,2.521,1.426
			c0.553,0.736,0.825,1.445,0.825,2.115L290.454,302.688z M325.316,284.903c-0.398-2.024-1.393-3.714-3.011-5.008
			c-1.012-0.826-2.146-1.392-3.389-1.656c-0.591-0.151-1.149-0.2-1.728-0.2c-0.651,0-1.277,0.09-1.903,0.246
			c-1.112,0.336-2.194,0.857-3.276,1.579c-1.055,0.725-2.298,1.781-3.692,3.167l-2.338,2.35c-1.533,1.576-2.605,2.553-3.17,2.938
			c-0.553,0.372-1.073,0.551-1.525,0.551c-0.383,0-0.765-0.121-1.139-0.435c-0.434-0.372-0.734-0.864-0.833-1.559l-0.057-0.604
			c0-0.513,0.113-1.081,0.299-1.646c0.439-1.07,1.117-2.199,2.039-3.332c2.08-2.564,4.552-4.257,7.424-5.1
			c0.412-0.128,0.791-0.196,1.104-0.196l0.646,0.175l0.23,0.241l0.861-0.241l0.196-0.087l-3.251-7.282l-0.19,0.093l-0.639,0.253
			c-0.125,0.708-0.205,1.007-0.345,1.171c-0.032,0.067-0.498,0.372-1.229,0.787c-2.293,1.226-4.049,2.32-5.361,3.327
			c-1.298,0.986-2.527,2.217-3.68,3.656c-2.55,3.131-3.839,6.12-3.839,8.989l0.044,0.758c0.177,2.342,1.245,4.319,3.184,5.869
			c1.155,0.933,2.414,1.518,3.753,1.737c0.398,0.055,0.782,0.09,1.203,0.09c1.048,0,2.038-0.201,3.006-0.664
			c0.932-0.406,1.765-0.91,2.503-1.5c0.716-0.583,1.844-1.617,3.369-3.173l2.32-2.297c1.516-1.522,2.641-2.474,3.272-2.839
			c0.412-0.246,0.812-0.347,1.175-0.347l1.101,0.429c0.425,0.362,0.76,0.849,0.924,1.509l0.114,0.997
			c0,0.366-0.039,0.734-0.126,1.131c-0.328,1.37-1.072,2.785-2.21,4.207c-1.065,1.309-2.435,2.501-4.055,3.578
			c-1.638,1.117-3.032,1.752-4.175,1.934l-0.538,0.059c-0.5,0-0.878-0.136-1.203-0.411l-0.213-0.177l-0.86,0.277l-0.209,0.086
			l3.698,7.229l0.832-0.355c0.134-0.668,0.191-1.003,0.253-1.043c0.009-0.007,0.478-0.3,1.233-0.68
			c3.753-1.735,6.855-4.089,9.244-7.051c1.356-1.651,2.408-3.381,3.168-5.133c0.752-1.776,1.143-3.365,1.143-4.869
			C325.473,285.91,325.435,285.396,325.316,284.903"/>
		<path fill="#0068B3" d="M320.003,200.728c0,63.298-51.31,114.615-114.634,114.615c-63.316,0-114.635-51.317-114.635-114.615
			c0-63.31,51.318-114.664,114.635-114.664C268.693,86.064,320.003,137.418,320.003,200.728"/>
		<path fill="#FFC627" d="M282.913,268.512c17.307-18.788,27.881-43.865,27.881-71.42c0-58.269-47.227-105.459-105.471-105.459
			c-58.256,0-105.477,47.19-105.477,105.459c0,58.256,47.221,105.462,105.477,105.462c29.614,0,56.363-12.219,75.518-31.873
			C281.478,270.328,282.252,269.412,282.913,268.512 M177.537,264.025c42.135-1.925,83.909-1.292,101.271-0.883
			c-0.73,0.814-1.495,1.607-2.256,2.4C263.658,264.528,233.544,262.975,177.537,264.025 M115.7,207.997
			c1.539-2.309,3.16-4.806,4.854-7.492l-6.206,35.199c-1.128-2.657-2.126-5.385-3.026-8.158L115.7,207.997z M109.845,222.554
			c-0.396-1.477-0.748-2.97-1.076-4.471c1.029-1.441,2.192-3.097,3.493-4.987L109.845,222.554z M123.334,196.019
			c2.197-3.592,4.449-7.411,6.703-11.43l-10.704,61.151c-1.28-2.253-2.472-4.558-3.575-6.921L123.334,196.019z M133.178,178.837
			c2.794-5.242,5.498-10.726,8.006-16.33l-16.297,91.933c-1.419-1.984-2.785-4.009-4.057-6.099L133.178,178.837z M148.534,150.234
			c0.539,0.6,1.072,1.173,1.612,1.768c0.401,16.859,1.621,66.085,3.028,101.239c-0.765,0.085-1.499,0.173-2.242,0.258
			C149.412,216.394,148.752,169.505,148.534,150.234 M227.372,220.481l0.042,0.148l0.01,0.005l-0.043-0.146
			c0.112,0.075,0.229,0.158,0.343,0.235l-0.3-0.09l8.439,26.707c-2.142,0.06-4.26,0.129-6.368,0.204l-10.29-32.751
			C222.005,216.81,224.716,218.692,227.372,220.481 M263.976,246.978l-2.107-6.618c7.609,3.573,13.366,5.688,16.864,6.825
			C273.78,247.069,268.854,246.999,263.976,246.978 M259.288,239.124l2.489,7.854c-2.168-0.005-4.328,0-6.474,0.013l-3.688-11.786
			C254.331,236.66,256.89,237.962,259.288,239.124 M248.957,233.758l4.152,13.256c-2.084,0.017-4.165,0.04-6.233,0.08l-5.47-17.682
			C244.025,230.979,246.554,232.432,248.957,233.758 M238.7,227.788l5.996,19.346c-2.243,0.04-4.466,0.088-6.679,0.151
			l-7.919-24.971C233.07,224.279,235.942,226.104,238.7,227.788 M216.118,212.535l11.214,35.091
			c-2.069,0.076-4.111,0.168-6.145,0.254l-13.077-41.41C210.839,208.6,213.503,210.607,216.118,212.535 M205.041,204.043
			l13.97,43.935c-2.25,0.104-4.479,0.216-6.681,0.336l-16.552-51.878C198.929,199.105,202.014,201.624,205.041,204.043
			 M192.872,193.938l17.307,54.501c-2.002,0.111-3.991,0.226-5.951,0.346l-19.645-62.188
			C187.386,189.146,190.153,191.594,192.872,193.938 M181.39,183.685l20.687,65.24c-2.129,0.137-4.228,0.276-6.3,0.424
			l-23.337-74.188C175.46,178.107,178.455,180.961,181.39,183.685 M168.788,171.588l24.845,77.916
			c-2.06,0.145-4.085,0.301-6.083,0.459l-27.266-87.074C163.143,165.878,165.985,168.802,168.788,171.588 M156.854,159.275
			l28.568,90.854c-2.276,0.186-4.505,0.371-6.69,0.563l-21.591-69.432c-0.327-8.718-0.591-16.445-0.783-22.508
			C156.523,158.931,156.693,159.097,156.854,159.275 M140.471,211.854l-0.3-0.053l-7.809,44.015
			c-2.181,0.295-4.093,0.563-5.744,0.804l14.388-81.093C140.822,186.413,140.627,199.092,140.471,211.854 M157.474,189.949
			l19.12,60.936c-1.908,0.167-3.779,0.342-5.613,0.512l-12.593-40.017C158.047,203.999,157.744,196.774,157.474,189.949
			 M158.794,220.005l10.049,31.596c-2.837,0.276-5.565,0.557-8.203,0.834C159.952,242.135,159.338,231.043,158.794,220.005
			 M134.548,255.523l5.8-32.734c-0.119,11.503-0.198,22.598-0.189,32.005C138.146,255.05,136.293,255.289,134.548,255.523
			 M140.238,268.104c0.017,1.186,0.038,2.303,0.061,3.345c-1.198-1.042-2.372-2.12-3.514-3.224
			C137.826,268.19,138.952,268.146,140.238,268.104 M151.587,267.76c0.717-0.022,1.468-0.04,2.216-0.062
			c0.265,5.565,0.539,10.383,0.808,14.198c-0.764-0.459-1.51-0.939-2.263-1.418C152.075,276.571,151.822,272.296,151.587,267.76
			 M205.328,98.23c54.585,0,98.82,44.252,98.82,98.834c0,16.258-3.95,31.583-10.905,45.113
			c-68.728-15.387-117.721-62.898-136.91-84.353c-0.257-7.989-0.387-12.902-0.387-12.902l-3.063-1.382l-2.876,2.483
			c0,0,0.034,1.679,0.104,4.575c-0.66-0.804-1.173-1.444-1.594-1.977c-0.052-4.62-0.074-7.297-0.074-7.297h-4.245l-0.074,2.536
			l-2.554,0.616c0,0-0.105,5.362-0.265,13.903c-12.759,29.172-26.795,45.838-33.759,52.937c-0.673-4.654-1.038-9.41-1.038-14.252
			C106.508,142.482,150.75,98.23,205.328,98.23 M163.7,286.706c-0.695-5.298-1.343-11.825-1.954-19.194
			c30.705-0.673,77.775-0.938,110.382,2.376c-17.585,16.152-41.039,26.016-66.802,26.016
			C190.447,295.903,176.351,292.598,163.7,286.706"/>
		<path fill="#0068B3" d="M109.49,122.221l-0.454-0.087l-2.987-2.18l-0.352-0.459c-0.007-0.142,0.095-0.412,0.298-0.799
			l-0.475-0.354l-4.829,6.602l-0.522,0.467l-0.743-0.178l-0.348,0.47l3.374,2.476l0.354-0.468l-0.512-0.742l0.246-0.663l2.47-3.386
			l2.274,1.653c-0.222,0.714-0.537,1.523-0.961,2.445c-0.414,0.932-0.993,1.883-1.728,2.891c-0.476,0.652-1.043,1.23-1.702,1.737
			c-0.647,0.515-1.354,0.876-2.111,1.096c-0.749,0.205-1.554,0.25-2.409,0.091c-0.843-0.145-1.7-0.538-2.565-1.17
			c-0.874-0.632-1.517-1.342-1.9-2.09c-0.393-0.758-0.602-1.54-0.619-2.324c-0.02-0.787,0.113-1.573,0.403-2.341
			c0.283-0.78,0.661-1.494,1.14-2.148c0.387-0.531,0.83-1.059,1.333-1.6c0.5-0.529,1.013-0.999,1.521-1.392
			c0.52-0.394,1.007-0.671,1.459-0.839c0.447-0.17,0.802-0.17,1.067,0.032l0.276,0.284l0.543-0.422l-2.338-4.092l-0.417,0.171
			l-0.011,0.407l-0.167,0.445l-0.662,0.545c-0.377,0.278-0.83,0.635-1.364,1.087c-0.532,0.44-1.109,0.983-1.728,1.618
			c-0.618,0.626-1.215,1.316-1.78,2.093c-0.904,1.237-1.559,2.48-1.979,3.726c-0.415,1.252-0.576,2.47-0.489,3.635
			c0.091,1.166,0.423,2.273,1,3.307c0.586,1.029,1.427,1.958,2.544,2.765c1.109,0.809,2.237,1.339,3.404,1.579
			c1.153,0.249,2.302,0.22,3.436-0.051c1.134-0.287,2.229-0.803,3.28-1.587c1.042-0.792,2.026-1.798,2.923-3.037
			c0.465-0.626,0.917-1.298,1.364-1.978c0.451-0.68,0.843-1.415,1.175-2.181c0.328-0.769,0.601-1.575,0.808-2.405
			c0.208-0.833,0.322-1.695,0.341-2.572l-0.423-0.316L109.49,122.221z M125.087,99.542c-1.01-1.112-2.135-1.857-3.36-2.228
			c-1.221-0.37-2.459-0.476-3.695-0.314c-1.25,0.156-2.453,0.525-3.606,1.083c-1.17,0.577-2.192,1.264-3.074,2.078
			c-0.889,0.803-1.667,1.754-2.35,2.872c-0.673,1.103-1.147,2.26-1.421,3.48c-0.265,1.22-0.278,2.46-0.015,3.72
			c0.253,1.243,0.886,2.431,1.905,3.552c1.013,1.103,2.135,1.857,3.356,2.228c1.223,0.37,2.456,0.477,3.706,0.311
			c1.244-0.154,2.426-0.525,3.569-1.125c1.135-0.599,2.146-1.299,3.039-2.113c0.886-0.795,1.679-1.74,2.377-2.828
			c0.7-1.074,1.182-2.235,1.452-3.454c0.277-1.219,0.282-2.454,0.021-3.707C126.733,101.837,126.099,100.654,125.087,99.542
			 M123.642,106.625c-0.16,0.813-0.457,1.592-0.888,2.343c-0.437,0.76-0.966,1.416-1.58,1.97c-0.608,0.567-1.305,1.028-2.099,1.39
			c-0.789,0.361-1.592,0.581-2.41,0.678c-0.825,0.079-1.627,0-2.427-0.247c-0.792-0.257-1.495-0.723-2.114-1.396
			c-0.61-0.69-1.017-1.431-1.19-2.238c-0.178-0.81-0.186-1.624-0.028-2.439c0.163-0.81,0.46-1.584,0.9-2.337
			c0.43-0.751,0.956-1.405,1.572-1.96c0.605-0.565,1.304-1.025,2.104-1.388c0.784-0.374,1.585-0.593,2.411-0.679
			c0.824-0.081,1.628-0.007,2.426,0.244c0.782,0.257,1.486,0.729,2.104,1.409c0.619,0.673,1.018,1.422,1.196,2.225
			C123.794,105.012,123.807,105.821,123.642,106.625 M146.644,91.404l0.062,0.7l-0.557,0.599l-9.234,5.736l-6.855-11.075
			c-0.208-0.327-0.052-0.651,0.464-0.979l-0.312-0.497l-4.78,2.961l0.313,0.505c0.552-0.354,0.938-0.363,1.135-0.019l7.837,12.618
			c0.204,0.324,0.029,0.671-0.526,1.025l0.311,0.494l13.225-8.208l0.717-0.37l0.555,0.309l0.505-0.309l-2.36-3.802L146.644,91.404z
			 M164.73,74.528c-0.809-0.83-1.694-1.443-2.668-1.817c-0.967-0.376-2.002-0.537-3.088-0.49c-1.095,0.062-2.199,0.322-3.315,0.764
			l-10.087,3.999l0.221,0.556c0.457-0.181,0.769-0.095,0.917,0.265l5.482,13.811c0.139,0.365-0.014,0.629-0.487,0.816l0.222,0.545
			l10.093-4.011c1.107-0.444,2.084-1.004,2.918-1.722c0.834-0.706,1.473-1.529,1.92-2.466c0.452-0.942,0.669-1.999,0.678-3.163
			c0.009-1.155-0.261-2.421-0.795-3.781C166.207,76.474,165.533,75.38,164.73,74.528 M163.575,84.037
			c-0.3,0.598-0.774,1.12-1.417,1.567c-0.643,0.445-1.446,0.859-2.403,1.23l-4.709,1.881l-4.275-10.77l4.714-1.859
			c0.952-0.386,1.817-0.641,2.59-0.755c0.772-0.117,1.472-0.072,2.112,0.161c0.624,0.229,1.193,0.653,1.701,1.241
			c0.507,0.603,0.969,1.418,1.387,2.478c0.421,1.061,0.651,1.969,0.694,2.756C164.004,82.746,163.882,83.434,163.575,84.037
			 M189.797,77.747l-0.192,0.672l-0.744,0.377L178.14,80.88l-0.861-4.421l6.292-1.231c0.426-0.078,0.774-0.073,1.034,0.017
			c0.27,0.087,0.448,0.387,0.535,0.886L185.72,76l-0.974-4.998l-0.582,0.116c0.101,0.489,0.039,0.823-0.173,0.981
			c-0.213,0.168-0.526,0.282-0.96,0.362l-6.291,1.236l-0.774-3.978l10.396-2.028c0.448-0.09,0.782-0.09,0.982-0.013l0.377,0.475
			l0.574-0.121l-0.825-4.232l-0.574,0.113l-0.166,0.621c-0.152,0.179-0.46,0.301-0.912,0.387l-14.632,2.862l0.113,0.576l0.425,0.074
			l0.266,0.393l2.842,14.567l-0.087,0.474l-0.383,0.215l0.118,0.585l14.963-2.915l0.794-0.084l0.417,0.475l0.574-0.108l-0.864-4.4
			L189.797,77.747z M210.592,64.257c0.569,0,0.853,0.191,0.853,0.582v10.396l-9.384-9.746c-0.438-0.423-0.657-0.733-0.657-0.908
			l0.261-0.336v-0.581l-5.596-0.013l0.009,0.606c0.405-0.012,0.618,0.182,0.618,0.582v14.855c-0.004,0.387-0.213,0.58-0.626,0.58
			l-0.003,0.583h4.839l0.009-0.58c-0.502-0.004-0.751-0.19-0.751-0.598V68.823l9.975,10.408l0.516,0.75l-0.417,0.297v0.58h5.296
			l0.004-0.58c-0.421,0-0.629-0.19-0.634-0.583l0.016-14.855c0-0.391,0.197-0.582,0.619-0.582v-0.593h-4.943V64.257z
			 M238.587,71.253c0.322-0.167,0.709-0.272,1.152-0.308c0.438-0.039,0.912-0.03,1.429,0.037c0.522,0.066,1.009,0.165,1.464,0.286
			c0.618,0.178,1.203,0.407,1.78,0.689c0.579,0.283,1.101,0.591,1.578,0.936c0.473,0.322,0.867,0.672,1.186,1.028l0.629,0.968
			l0.048,0.788l0.283,0.233l3.274-3.348l-0.311-0.349l-0.681,0.008l-0.954-0.537c-0.366-0.286-0.82-0.597-1.363-0.954
			c-0.549-0.364-1.205-0.731-1.979-1.132c-0.772-0.398-1.715-0.755-2.83-1.072c-1.305-0.354-2.479-0.507-3.527-0.485
			c-1.054,0.039-1.965,0.214-2.721,0.514c-0.772,0.309-1.391,0.734-1.873,1.284c-0.478,0.547-0.809,1.143-0.986,1.788
			c-0.274,0.963-0.313,1.804-0.113,2.513c0.203,0.694,0.561,1.297,1.056,1.813c0.503,0.52,1.121,0.952,1.842,1.313
			c0.728,0.363,1.482,0.679,2.261,0.971c0.781,0.284,1.55,0.549,2.306,0.794c0.762,0.246,1.429,0.508,1.995,0.78
			c0.568,0.272,1.003,0.574,1.312,0.9c0.294,0.334,0.382,0.749,0.243,1.226c-0.135,0.489-0.438,0.824-0.917,1.001
			c-0.483,0.188-1.017,0.282-1.615,0.297c-0.587,0.015-1.178-0.025-1.761-0.139c-0.574-0.098-1.047-0.203-1.403-0.302
			c-0.487-0.143-1.021-0.345-1.589-0.634c-0.588-0.284-1.117-0.596-1.631-0.95c-0.498-0.334-0.934-0.687-1.289-1.046l-0.66-0.983
			l0.009-0.549l-0.27-0.236l-2.796,3.333l0.372,0.371l0.479-0.136l0.756,0.46c0.27,0.245,0.643,0.538,1.125,0.884
			c0.483,0.356,1.103,0.713,1.874,1.074c0.772,0.362,1.754,0.709,2.953,1.042c0.861,0.243,1.812,0.437,2.846,0.575
			c1.038,0.148,2.042,0.136,3.015-0.025c0.974-0.157,1.843-0.501,2.617-1.043c0.771-0.529,1.306-1.343,1.607-2.431
			c0.263-0.944,0.295-1.767,0.09-2.455c-0.2-0.688-0.557-1.295-1.061-1.812c-0.494-0.511-1.111-0.953-1.833-1.323
			c-0.727-0.372-1.481-0.696-2.259-0.993c-0.777-0.271-1.547-0.542-2.303-0.8c-0.757-0.257-1.405-0.535-1.978-0.824
			c-0.56-0.3-0.99-0.607-1.29-0.981c-0.294-0.355-0.373-0.775-0.238-1.279L238.587,71.253z M260.835,92.456l5.573-11.763
			l4.874,2.316l0.448,0.387l-0.01,0.674l0.525,0.256l1.964-4.138l-0.535-0.244l-0.517,0.443l-0.587-0.096l-13.123-6.225
			l-0.449-0.389l0.018-0.688l-0.524-0.256l-1.969,4.146l0.535,0.251l0.513-0.446l0.596,0.104l4.873,2.318l-5.578,11.758
			l-0.352,0.321l-0.431-0.038l-0.256,0.523l4.553,2.163l0.253-0.53C260.795,93.103,260.666,92.818,260.835,92.456 M281.331,86.314
			l0.295,0.437l-0.066,0.509l-0.49,0.413l-0.781,0.429l-12.135,7.15l-0.848,0.417l-0.8-0.019l-0.32,0.478l3.845,2.608l0.323-0.492
			l-0.313-0.656c0.105-0.153,0.385-0.358,0.827-0.616l2.275-1.264l6.608,4.454l-0.325,2.704c-0.043,0.387-0.134,0.671-0.252,0.854
			l-0.334,0.132l-0.322-0.102l-0.329,0.484l4.77,3.224l0.33-0.483l-0.343-0.628l-0.083-0.677l1.814-14.837l0.097-0.765l0.203-0.5
			l0.457-0.264l0.477,0.108l0.326-0.489l-4.569-3.099L281.331,86.314z M280.137,97.497l-4.826-3.245l5.955-3.324L280.137,97.497z
			 M300.119,104.124l3.967,3.661l0.313,0.512l-0.223,0.637l0.436,0.406l3.106-3.375l-0.439-0.401l-0.626,0.278l-0.529-0.278
			l-10.682-9.835l-0.31-0.507l0.218-0.646l-0.436-0.405l-3.1,3.373l0.442,0.397l0.623-0.274l0.523,0.274l3.973,3.65l-8.823,9.578
			l-0.436,0.2l-0.395-0.176l-0.395,0.446l3.696,3.421l0.404-0.443l-0.125-0.921L300.119,104.124z M322.439,124.165l-0.619,0.124
			l-0.763-0.627l-9.104-11.812l-0.458,0.355l0.128,0.403l-0.24,0.413l-11.764,9.069l-0.457,0.112l-0.368-0.229l-0.471,0.361
			l9.302,12.078l0.438,0.672l-0.251,0.596l0.358,0.463l3.561-2.736l-0.361-0.469l-0.687,0.132l-0.669-0.495l-6.669-8.66l3.58-2.735
			l3.905,5.062l0.46,0.925c0.029,0.285-0.151,0.574-0.547,0.889l0.355,0.463l4.049-3.116l-0.369-0.473
			c-0.391,0.315-0.718,0.413-0.948,0.283l-0.769-0.687l-3.912-5.076l3.214-2.472l6.473,8.395l0.443,0.868l-0.255,0.556l0.352,0.465
			l3.422-2.628L322.439,124.165z"/>
	</g>
</g>
</svg>
