<?xml version="1.0" encoding="utf-8"?>
<!-- Generator: Adobe Illustrator 16.0.0, SVG Export Plug-In . SVG Version: 6.00 Build 0)  -->
<!DOCTYPE svg PUBLIC "-//W3C//DTD SVG 1.1//EN" "http://www.w3.org/Graphics/SVG/1.1/DTD/svg11.dtd">
<svg version="1.1" id="Layer_1" xmlns="http://www.w3.org/2000/svg" xmlns:xlink="http://www.w3.org/1999/xlink" x="0px" y="0px"
	 width="400px" height="400px" viewBox="0 0 400 400" enable-background="new 0 0 400 400" xml:space="preserve">
<g>
	<g>
		<polygon fill-rule="evenodd" clip-rule="evenodd" fill="#FFFFFF" points="312.696,10.333 288.857,52.583 284.717,86.338 
			242.188,162.059 186.529,162.059 228.086,88.598 228.086,10.333 184.925,10.333 162.105,52.201 158.233,86.338 97.632,194.349 
			107.795,219.813 145.528,219.813 128.347,263.297 96.182,228.517 99.965,279.571 44.253,281.908 88.576,313.087 57.016,360.132 
			107.953,343.477 128.954,393.92 144.964,338.945 201.791,353.579 165.095,311.168 210.256,273.881 163.657,276.773 
			214.075,219.813 280.436,219.813 353.921,89.566 353.921,10.333 		"/>
		<path fill="#FFFFFF" d="M312.695,14.333v-4V14.333L312.695,14.333z"/>
	</g>
	<polygon fill-rule="evenodd" clip-rule="evenodd" fill="#061922" points="312.696,10.333 288.857,52.583 284.717,86.338 
		242.188,162.059 186.529,162.059 228.086,88.598 228.086,10.333 184.925,10.333 162.105,52.201 158.233,86.338 97.632,194.349 
		107.795,219.813 145.528,219.813 128.347,263.297 96.182,228.517 99.965,279.571 44.253,281.908 88.576,313.087 57.016,360.132 
		107.953,343.477 128.954,393.92 144.964,338.945 201.791,353.579 165.095,311.168 210.256,273.881 163.657,276.773 
		214.075,219.813 280.436,219.813 353.921,89.566 353.921,10.333 	"/>
	<g>
		<polygon fill-rule="evenodd" clip-rule="evenodd" fill="#C4CDD3" points="303.77,48.014 323.896,48.014 337.915,21.69 
			318.505,21.69 		"/>
		<polygon fill-rule="evenodd" clip-rule="evenodd" fill="#C4CDD3" points="177.197,48.05 198.882,48.001 212.694,21.69 
			191.798,21.698 		"/>
		<polygon fill-rule="evenodd" clip-rule="evenodd" fill="#C4CDD3" points="172.041,81.186 191.576,81.243 193.402,58.634 
			174.495,58.634 		"/>
		<polygon fill-rule="evenodd" clip-rule="evenodd" fill="#C4CDD3" points="298.192,81.186 317.74,81.243 319.578,58.634 
			300.647,58.634 		"/>
		<path fill-rule="evenodd" clip-rule="evenodd" fill="#C4CDD3" d="M294.005,94.714l-44.068,77.58H144.175l44.083-77.58h-20.738
			l-53.181,93.903h58.989L128.593,288.66l-18.518-20.564l1.029,24.242l-29.823,1.641l24.019,16.91l-17.113,25.473l27.606-9.013
			l11.37,27.332l8.688-29.791l30.782,7.935l-19.879-22.984l24.477-20.212l-37.77,1.662l69.552-102.673h59.106l52.285-93.903H294.005
			z M120.983,316.765c-4.955,0-8.96-4.001-8.96-8.947c0-4.949,4.005-8.942,8.96-8.942c4.945,0,8.954,3.993,8.954,8.942
			C129.938,312.764,125.928,316.765,120.983,316.765z"/>
	</g>
</g>
</svg>
