<?xml version="1.0" encoding="utf-8"?>
<!-- Generator: Adobe Illustrator 16.0.3, SVG Export Plug-In . SVG Version: 6.00 Build 0)  -->
<!DOCTYPE svg PUBLIC "-//W3C//DTD SVG 1.1//EN" "http://www.w3.org/Graphics/SVG/1.1/DTD/svg11.dtd">
<svg version="1.1" id="Layer_1" xmlns="http://www.w3.org/2000/svg" xmlns:xlink="http://www.w3.org/1999/xlink" x="0px" y="0px"
	 width="400px" height="400px" viewBox="0 0 400 400" enable-background="new 0 0 400 400" xml:space="preserve">
<g>
	<g>
		<path fill="#8B8D8D" d="M200.494,35.525c-90.031,0-162.995,72.943-162.995,162.979c0,90.03,72.964,162.973,162.995,162.973
			c90.015,0,162.996-72.942,162.996-162.973C363.49,108.468,290.509,35.525,200.494,35.525"/>
	</g>
	<g>
		<path fill="#CF0A2C" d="M357.438,197.919c0-84.338-72.148-156.906-156.501-156.906c-84.322,0-157.387,72.959-157.387,157.296
			c0,77.425,61.554,145.763,136.868,156.472c6.356,0.785,12.828,1.201,19.396,1.209h0.095h0.086h0.034
			c14.273-0.005,28.099-1.915,41.248-5.471C307.057,331.633,357.438,268.407,357.438,197.919z"/>
	</g>
	<g>
		<path fill="#FFFFFF" d="M357.235,190.309l-313.458,0.028c-0.148,2.683-0.226,5.379-0.226,8.087
			c0,14.291,2.102,28.269,5.996,41.635c36.913-0.003,264.334-0.022,301.877-0.04c3.91-13.481,6.015-27.582,6.015-41.986
			C357.438,195.447,357.37,192.872,357.235,190.309z"/>
	</g>
	<path fill="#0D2240" d="M180.393,354.823c6.356,0.786,12.828,1.201,19.396,1.209h0.095h0.087h0.035
		c14.273-0.004,28.099-1.913,41.248-5.471c41.182-11.823,76.327-41.028,96.854-78.511H62.883
		C86.836,315.476,130.604,347.744,180.393,354.823z"/>
	<g>
		<path fill="#FFFFFF" d="M199.762,76.085c0,0-1.235-22.132-1.24-23.152c0.006-1.014,1.146-2.033,1.146-2.033
			c-0.785,0.01-3.831,0.23-7.051,0.343c-0.781,0.159-2.196,0.198-1.893,3.421l1.304,24.409l7.871-0.418l0.573-0.161
			C200.473,78.496,199.945,77.603,199.762,76.085"/>
		<path fill="#FFFFFF" d="M278.929,80.428l2.864-4.986l-11.635-6.718c0,0-0.051-0.036-0.115-0.066l-6.604-3.813
			c-0.946-0.547-1.625,0.173-1.859,0.543c-0.233,0.384-2.632,4.608-2.632,4.608l0.004,0.002l-1.061,1.873
			c0,0,1.608-1.559,3.451-0.492l4.118,2.377l-10.523,18.234l7.41,4.293c0,0,0.029-1.209,0.701-2.582c0,0,5.826-10.135,9.224-16.011
			l3.175,1.831c1.832,1.058,1.772,3.93,1.772,3.93L278.929,80.428z"/>
		<path fill="#FFFFFF" d="M256.235,61.621l-10.834-3.759c-3.494-1.213-5.97-1.53-7.444-0.977c-1.468,0.557-2.728,2.352-3.781,5.398
			l-3.966,11.449c-0.475,1.343-0.767,2.467-0.881,3.383c-0.224,1.783,0.182,3.167,1.214,4.132c1.02,0.973,2.924,1.944,5.727,2.917
			l4.891,1.693c3.532,1.227,6.036,1.553,7.491,0.994c1.465-0.563,2.731-2.356,3.789-5.402c0,0,1.896-5.359,2.163-6.171
			c0.456-1.479-0.652-2.42-1.277-2.636l-9.172-3.188c-1.077-0.373-1.764,0.446-2.146,1.139c-0.371,0.696-1.728,4.617-1.728,4.617
			l-0.48,1.219c0,0,1.037-1.02,2.412-0.547l3.373,1.171c-0.515,1.235-1.078,1.934-1.663,2.12c-0.53,0.188-1.64-0.024-3.346-0.618
			c0,0-1.185-0.458-1.505-0.65c-0.82-0.525-1.177-1.206-1.068-2.072c0.061-0.494,0.25-1.172,0.553-2.064l2.201-6.343
			c0.59-1.695,1.193-2.642,1.813-2.844c0.625-0.186,1.781,0.004,3.486,0.598l8.333,2.889c1.502,0.522,1.793,2.489,1.793,2.489
			l0.583-1.664l1.478-4.279C258.67,62.981,257.642,62.109,256.235,61.621"/>
		<path fill="#FFFFFF" d="M173.169,53.622c0,0,2.486,0.796,2.904,2.731l0.034,0.081l1.433,6.902l-5.472,1.145
			c-1.611,0.333-1.95,1.928-1.95,1.928l-2.338-11.675l-9.424,1.964c0,0,1.95,0.907,2.359,2.842l0.037,0.081l4.97,23.951l5.506-1.136
			c1.079-0.225,1.854-0.477,2.054-1.32l-2.007-9.621l7.626-1.591l2.17,10.482l5.503-1.136c1.083-0.224,1.863-0.48,2.057-1.32
			l-5.498-26.383L173.169,53.622z"/>
		<path fill="#FFFFFF" d="M300.897,96.228c0.792-1.614,0.839-3.083,0.119-4.399c-0.583-1.183-2.065-2.705-4.429-4.564l-4.06-3.201
			c-2.906-2.288-5.149-3.397-6.715-3.348c-1.571,0.045-3.349,1.331-5.346,3.862l-7.478,9.532c-0.88,1.118-1.516,2.091-1.922,2.921
			c-0.791,1.612-0.871,3.044-0.215,4.289c0.649,1.256,2.139,2.798,4.467,4.629l4.063,3.204c2.94,2.313,5.204,3.439,6.759,3.382
			c1.576-0.048,3.349-1.337,5.346-3.869l7.489-9.526C299.847,98.031,300.49,97.058,300.897,96.228 M291.087,96.373l-4.136,5.265
			c-1.12,1.441-2.04,2.124-2.78,2.098c-0.557,0.008-1.536-0.556-2.961-1.676l0.618,0.477c-0.984-0.775-1.581-1.306-1.82-1.591
			c-0.6-0.761-0.715-1.518-0.331-2.303c0.222-0.446,0.619-1.027,1.192-1.774l4.146-5.281c1.115-1.407,2-2.104,2.639-2.102
			c0.654,0.032,1.686,0.589,3.108,1.708l-0.586-0.452c0.978,0.771,1.586,1.304,1.822,1.613c0.604,0.736,0.717,1.514,0.332,2.297
			C292.115,95.089,291.702,95.665,291.087,96.373"/>
		<path fill="#FFFFFF" d="M160.392,73.331c-1.793-3.436-5.531-4.612-9.333-3.03l-4.283,1.785c-1.542,0.644-2.626,0.526-3.236-0.355
			c-0.022-0.032-0.188-0.396-0.202-0.436c-0.191-0.642-0.672-1.754,1.613-2.705l7.731-3.222c1.667-0.695,4.199,0.969,4.199,0.969
			s-1.53-3.64-2.471-5.87c-0.541-1.304-2.212-2.148-3.573-1.581l-9.467,3.944c-3.414,1.421-5.477,2.826-6.197,4.221
			c-0.721,1.385-0.444,3.593,0.79,6.577l1.087,2.545c0.166,0.382,0.364,0.745,0.59,1.072c0.868,1.256,2.077,2.093,3.647,2.516
			c1.864,0.479,3.998,0.21,6.408-0.793l3.684-1.537c1.425-0.593,2.456-0.438,3.079,0.465c0.167,0.24,0.252,0.508,0.254,0.795
			c0,0,0.42,1.29-2.516,2.512l-7.434,3.098c-1.665,0.565-4.072-1.009-4.072-1.009s1.529,3.637,2.471,5.87
			c0.541,1.302,2.21,2.147,3.573,1.578l0.737-0.307l5.113-2.13l3.71-1.546c3.417-1.423,5.475-2.82,6.193-4.225
			c0.727-1.398,0.418-3.419-0.817-6.382C161.67,76.149,160.711,73.94,160.392,73.331"/>
		<path fill="#FFFFFF" d="M318.595,111.774l-1.334-1.678c0,0,0.371,2.413-1.169,3.632l0.043-0.032l-8.273,6.458l5.326-14.522
			c0.125-0.368,0.063-0.72-0.21-1.07c-0.604-0.773-4.082-5.251-4.082-5.251l-1.433-1.812c0,0,0.385,2.598-1.167,3.817
			l-19.332,15.124l3.459,4.433c0.674,0.864,1.25,1.461,2.091,1.257c0,0,4.867-3.817,10.321-8.083l-4.911,12.721
			c-0.872,2.025-2.243,0.82-2.243,0.82l0.983,1.339l0.018-0.005l3.441,4.413c0.68,0.868,1.248,1.452,2.084,1.248l21.229-16.601
			L318.595,111.774z"/>
		<path fill="#FFFFFF" d="M221.752,52.612l-2.132-0.219c0,0,1.983,1.422,1.775,3.375l0.007-0.052l-1.178,10.428l-6.644-13.969
			c-0.175-0.345-0.471-0.548-0.913-0.599c-0.975-0.109-6.607-0.76-6.607-0.76l-2.297-0.246c0,0,2.128,1.544,1.91,3.506
			l-2.731,24.389l5.587,0.637c1.089,0.123,1.918,0.129,2.362-0.616c0,0,0.68-6.145,1.452-13.026l5.645,12.412
			c0.838,2.039-0.982,2.174-0.982,2.174l1.643,0.237l0.01-0.016l5.56,0.632c1.093,0.123,1.912,0.123,2.351-0.616l3.002-26.781
			L221.752,52.612z"/>
		<path fill="#FFFFFF" d="M104.502,84.03l-0.815,0.983l-4.372,4.959c-0.02,0.03-0.028,0.048-0.06,0.085
			c-0.594,0.674-1.012,1.247-0.961,1.867l11.126,17.164l-15.681-8.478c-1.99-0.804-1.158-2.982-1.158-2.982l-1.573,1.769
			l-3.222,3.653c-0.016,0.027-0.024,0.047-0.057,0.083c-0.815,0.922-1.221,1.851-0.787,2.848l11.246,15.824l-15.719-8.077
			c-2.038-1.047-1.156-3.314-1.156-3.314l-1.666,1.871l-3.704,4.201c-0.012,0.025-0.023,0.046-0.066,0.093
			c-0.846,0.961-1.062,2.344-0.24,3.016c0.117,0.103,0.046,0.069,0.046,0.069l24.409,11.436l5.729-6.498
			c0.775-0.88,1.001-1.358,0.64-2.29l-4.625-8.591l9.465,4.663l6.104-6.928c0.756-0.856,0.864-2.076,0.556-3.002l-12.978-21.706
			C104.145,85.271,104.502,84.03,104.502,84.03"/>
		<path fill="#FFFFFF" d="M117.993,76.04l-4.643,3.248c-0.933,0.66-1.334,1.275-1.242,2.253l7.818,23.833
			c0.502,1.49-1.316,4.19-1.316,4.19l8.153-5.705c0.735-0.514,0.908-1.382,0.65-2.206l-1.152-3.367l6.213-4.349l2.423,1.522
			c1.393,1.151,0.393,2.438,0.393,2.438l8.957-6.266L117.993,76.04z M123.784,91.706l-1.501-4.108l3.75,2.462L123.784,91.706z"/>
		<polygon fill="#FFFFFF" points="73.062,140.835 76.74,152.154 88.641,152.154 79.012,159.15 82.69,170.471 73.062,163.475 
			63.433,170.471 67.111,159.15 57.482,152.154 69.384,152.154 		"/>
		<polygon fill="#FFFFFF" points="327.927,142.344 324.25,153.663 312.348,153.663 321.976,160.659 318.297,171.979 
			327.927,164.983 337.556,171.979 333.877,160.659 343.506,153.663 331.605,153.663 		"/>
	</g>
	<g>
		<path fill="#FFFFFF" d="M201.293,317.717h-5.666c-1.143,0.004-1.826,0.278-2.311,1.133l-7.256,24.01
			c-0.444,1.507-3.483,2.678-3.483,2.678h9.952c0.896,0,1.536-0.61,1.797-1.433l0.987-3.42h7.582l1.114,2.636
			c0.48,1.74-1.076,2.224-1.076,2.224h10.931L201.293,317.717z M197.299,334.02l1.211-4.203l1.574,4.203H197.299z"/>
		<path fill="#FFFFFF" d="M241.05,338.16l-5.979-6.616c1.391-0.322,2.509-1.085,2.923-1.775c0.674-1.123,0.708-3.262,0.123-6.419
			c0,0-1.122-5.529-1.346-6.393c-0.431-1.666-1.365-2.673-2.379-3.063c-0.996-0.398-2.56-0.407-4.677-0.014l-19.709,3.707
			c0,0,2.497,0.925,2.915,2.797l4.38,24.056l5.497-1.02c1.09-0.202,1.874-0.421,2.085-1.268l-1.49-8.144l3.837-0.765l6.638,8.066
			l9.829-1.822C243.696,339.488,241.994,339.063,241.05,338.16 M230.319,322.051c0.207,0.577,0.491,2.582,0.312,3.111
			c-0.172,0.52-0.529,0.837-1.079,0.94l-4.545,0.896c-1.036,0.191-1.795,1.27-2.418,2.565l-1.338-7.264l7.376-1.423
			C229.424,320.731,229.997,321.114,230.319,322.051"/>
		<path fill="#FFFFFF" d="M263.165,305.073c-0.803-1.543-1.932-2.301-2.999-2.459c-1.063-0.161-2.592,0.178-4.568,1.033
			l-18.565,8.037c0,0,2.583,0.458,3.49,2.088l8.595,19.835c0.375,1.406-0.145,2.919-0.383,3.226l18.066-7.744
			c2.453-1.062,3.878-2.224,4.281-3.446c0.41-1.245-0.035-3.338-1.31-6.285l-5.368-11.731
			C263.837,306.333,263.576,305.863,263.165,305.073 M257.991,311.483c0.333,0.52,4.919,10.765,4.865,11.313
			c-0.049,0.559-0.327,0.952-0.839,1.174l-7.111,3.078l-4.164-9.582c-0.258-0.622-0.9-2.087-1.623-3.729l6.958-3.011
			C256.826,310.4,257.468,310.647,257.991,311.483"/>
		<path fill="#FFFFFF" d="M185.867,323.247l1.171-5.294c0,0-20.592-4.514-20.879-4.543c-1.689-0.187-2.343,0.908-2.771,2.267
			l-0.817,3.71l0.016,0.004l-0.369,1.519c0,0,1.524-1.144,3.189-0.898l9.475,2.088l-15.87,13.351l-0.961,4.474l20.665,4.552
			c1.322,0.29,2.243,0.335,2.707-0.999l1.487-6.835c0,0-1.546,1.489-3.25,1.208l-10.013-2.206L185.867,323.247z"/>
		<path fill="#FFFFFF" d="M152.169,335.344c0,0,7.218-20.959,7.6-21.905c0.388-0.935,1.829-1.449,1.829-1.449
			c-0.729-0.285-3.635-1.233-6.657-2.345c-0.783-0.148-2.107-0.646-3.046,2.452l-8.016,23.093l7.445,2.586l0.593,0.069
			C151.916,337.845,151.767,336.818,152.169,335.344"/>
		<path fill="#FFFFFF" d="M150.874,308.971l-1.1-0.649l-5.589-3.532c-0.032-0.013-0.052-0.021-0.093-0.046
			c-0.761-0.48-1.391-0.8-1.996-0.653l-12.295,11.966l4.498-14.454c0.28-1.398,2.535-1.439,2.535-1.439l-1.994-1.272l-4.118-2.602
			c-0.03-0.012-0.051-0.019-0.091-0.044c-1.042-0.658-2.021-0.913-2.937-0.327l-12.631,11.7l5.545-14.08
			c0.711-2.181,3.091-1.668,3.091-1.668l-2.111-1.35l-4.736-2.991c-0.025-0.007-0.051-0.018-0.104-0.05
			c-1.082-0.684-2.48-0.678-3.014,0.238c-0.083,0.132-0.061,0.058-0.061,0.058l-8.702,25.102l7.326,4.626
			c0.991,0.629,1.498,0.776,2.362,0.271l7.75-5.925l-3.105,10.081l7.807,4.934c0.964,0.609,2.186,0.522,3.051,0.072l18.104-17.062
			C149.592,308.813,150.874,308.971,150.874,308.971"/>
		<path fill="#FFFFFF" d="M291.944,299.086c-2.466-2.987-6.369-3.365-9.759-1.028l-3.821,2.635c-1.375,0.946-2.458,1.058-3.238,0.32
			c-0.028-0.026-0.264-0.348-0.288-0.383c-0.321-0.587-1.02-1.577,1.017-2.983l6.896-4.752c1.485-1.026,4.308,0.077,4.308,0.077
			s-2.25-3.242-3.634-5.23c-0.799-1.163-2.609-1.645-3.825-0.806l-8.441,5.823c-3.043,2.098-4.772,3.901-5.189,5.416
			c-0.417,1.501,0.313,3.607,2.138,6.268l1.591,2.264c0.24,0.342,0.51,0.655,0.799,0.928c1.11,1.046,2.467,1.615,4.092,1.705
			c1.921,0.079,3.951-0.624,6.101-2.108l3.288-2.264c1.269-0.876,2.31-0.938,3.106-0.187c0.212,0.202,0.352,0.446,0.415,0.728
			c0,0,0.676,1.175-1.94,2.979l-6.632,4.57c-1.512,0.899-4.192-0.142-4.192-0.142s2.251,3.242,3.636,5.229
			c0.797,1.163,2.607,1.642,3.823,0.804l0.656-0.452l4.561-3.145l3.309-2.281c3.048-2.104,4.771-3.894,5.182-5.418
			c0.42-1.521-0.302-3.432-2.123-6.076C293.779,301.577,292.382,299.617,291.944,299.086"/>
	</g>
	<path fill="#8B8D8D" d="M296.646,146.442c-6.718-12.382-15.755-23.321-26.534-32.236c-2.022-1.671-4.121-3.246-6.261-4.77
		c-17.829-12.707-39.61-20.222-63.168-20.265h-0.193c-58.416,0.004-106.149,45.84-109.167,103.531
		c-0.101,1.863-0.149,3.736-0.153,5.622v0.19c0.004,15.08,3.058,29.451,8.581,42.521c0.688,1.636,1.421,3.248,2.186,4.841
		c6.132,12.737,14.661,24.103,25.003,33.514c2.583,2.352,5.283,4.581,8.084,6.681c18.218,13.643,40.837,21.733,65.349,21.76h0.065
		h0.063h0.022c13.198-0.004,25.844-2.344,37.553-6.629c41.826-15.31,71.689-55.437,71.745-102.57v-0.061v-0.002v-0.076
		c-0.002-15.074-3.057-29.438-8.578-42.505C299.86,152.722,298.326,149.538,296.646,146.442"/>
	<path fill="#FFFFFF" d="M298.542,157.129c-1.343-3.179-2.836-6.279-4.472-9.292c-6.538-12.051-15.333-22.697-25.824-31.371
		c-1.966-1.627-4.009-3.159-6.092-4.643c-17.35-12.367-38.549-19.68-61.477-19.722h-0.188
		c-56.849,0.004-103.305,44.611-106.242,100.757c-0.097,1.813-0.146,3.635-0.149,5.471v0.185
		c0.004,14.678,2.978,28.661,8.353,41.381c0.671,1.591,1.383,3.162,2.126,4.711c5.969,12.395,14.269,23.457,24.332,32.615
		c2.517,2.292,5.144,4.458,7.869,6.505c17.729,13.276,39.743,21.149,63.599,21.174h0.063h0.061h0.022
		c12.843-0.003,25.152-2.278,36.547-6.449c40.704-14.9,69.765-53.952,69.822-99.823v-0.058v-0.002v-0.074
		C306.887,183.825,303.916,169.844,298.542,157.129z"/>
	<path fill="#0D2240" d="M180.621,149.735l2.467-8.973l0.583-2.091l-11.325-6.345c0,0-6.605-4.583-21.375,3.987
		c-17.293,10.198-31.363,23.386-38.645,37.377c-4.031,7.752-7.231,16.674-8.884,26.822c0.515,19.199,6.576,37.015,16.678,51.878
		c-2.88-27.669,23.856-57.982,44.792-78.684C175.967,162.656,180.621,149.735,180.621,149.735"/>
	<path fill="#0D2240" d="M250.144,136.311c-14.771-8.569-21.375-3.982-21.375-3.982l-11.32,6.34l0.579,2.096l2.467,8.973
		c0,0,4.651,12.918,15.709,23.967c20.87,20.638,47.518,50.829,44.82,78.431c10.149-15.034,16.172-33.065,16.521-52.487
		c-1.694-9.795-4.839-18.427-8.756-25.96C281.51,159.703,267.434,146.511,250.144,136.311"/>
	<path fill="#CF0A2C" d="M214.618,119.725c38.811,4.385,64.317,26.41,77.487,45.946c-9.91-28.192-32.459-50.424-60.855-59.907
		C224.986,107.615,218.044,111.507,214.618,119.725"/>
	<path fill="#CF0A2C" d="M186.498,119.725c-3.441-8.26-10.442-12.152-16.732-13.985c-28.569,9.521-51.229,31.96-61.059,60.395
		C121.79,146.484,147.387,124.142,186.498,119.725"/>
	<path fill="#CF0A2C" d="M192.852,118.63l7.703-11.34l7.713,11.34c3.091-8.451,7.969-13.111,12.861-15.649
		c-6.624-1.434-13.492-2.206-20.542-2.213c-7.085-0.006-13.981,0.77-20.641,2.202C184.85,105.503,189.743,110.148,192.852,118.63"/>
	<path fill="#0D2240" d="M200.556,151.569c-1.121,0.801-36.952,26.589-52.737,52.125c-21.304,34.465-18.537,54.341-13.024,65.686
		c13.729,12.625,31.103,21.336,50.366,24.395l8.303-117.718l6.924-6.944l0.089-0.093v0.002l0.008-0.002l0.086,0.093l6.921,6.944
		l8.364,117.623l-0.111,0.058c19.414-3.065,36.915-11.848,50.704-24.624c5.428-11.388,7.998-31.216-13.148-65.419
		C237.517,178.158,201.682,152.371,200.556,151.569"/>
	<polygon fill="#8B8D8D" points="207.492,176.057 200.572,169.115 200.652,302.344 215.741,293.741 215.745,293.738 215.854,293.68 
			"/>
	<path fill="#8B8D8D" d="M221.267,126.624c-4.213-0.722-8.454-1.304-12.75-1.575l-3.034-0.192l-0.061-0.125l-0.063-0.125
		l-1.219-2.481l-0.075-0.154v-0.001l-3.51-7.132l-1.131,2.299l-2.261,4.596l-0.004,0.006l-0.097,0.191l-0.093,0.194l-1.217,2.481
		l-0.101,0.21l-0.02,0.04l-3.03,0.192c-4.293,0.271-8.539,0.853-12.751,1.575c-1.872,0.318-3.755,0.601-5.602,1.009h0.002h-0.002
		l5.955,3.208l5.955,3.211l1.839,0.99l1.843,0.993l-1.118,4.033l-0.061,0.224l-0.513,1.863l-3.315,12.041l0.002-0.004v0.004
		l7.545-5.567l5.116-3.773l1.51-1.114l1.508-1.112v-0.002v-0.061l0.041,0.036l0.048-0.036v0.061v0.002l1.507,1.112l1.511,1.114
		l12.658,9.34l-3.315-12.041l-0.286-1.043l-0.284-1.043l-1.114-4.033l1.194-0.646l2.487-1.337l8.038-4.334l3.869-2.085h-0.003h0.003
		C225.02,127.225,223.138,126.942,221.267,126.624"/>
</g>
<g>
</g>
<g>
</g>
<g>
</g>
<g>
</g>
<g>
</g>
<g>
</g>
</svg>
